<svg width="231" height="65" viewBox="0 0 231 65" fill="none" xmlns="http://www.w3.org/2000/svg">
<g clip-path="url(#clip0_1_3)">
<rect width="231" height="65" fill="#CEF2EC"/>
<path d="M14 47.2034L29.0856 65H66.7995L48 41L14 47.2034Z" fill="#51E27A" style="mix-blend-mode:darken"/>
<path d="M78 38L94.0695 65H117.278L104.5 35L78 38Z" fill="#64E889" style="mix-blend-mode:darken"/>
<path d="M127.142 35L138.746 65H168.337L162.535 36.5254L127.142 35Z" fill="#53C172" style="mix-blend-mode:darken"/>
<path fill-rule="evenodd" clip-rule="evenodd" d="M104.5 35H127.142L138.746 65H117.278L104.5 35ZM199.668 65H168.337L162.535 36.5254H195.607L199.668 65ZM231 65V44L222.5 41L231 65ZM78 38L48 41L66.7995 65H94.0695L78 38ZM0 52L14 47.2034L29.0856 65L0 65.5V52Z" fill="#2DE862" style="mix-blend-mode:darken"/>
<path d="M195.607 36.5254L199.668 65H231L222.5 41L195.607 36.5254Z" fill="#35CE60" style="mix-blend-mode:darken"/>
<path d="M194 37.0805L206.734 3.51799C207.036 2.72165 208.132 2.64347 208.544 3.38884L231 44L194 37.0805Z" fill="#3B7D41"/>
<path d="M18.5 1.5C15.1752 12.8042 5.03065 38.4786 1.0522 48.5474C0.244202 50.5923 -0.309461 51.9936 -0.5 52.5L22.5 46L47.5 41L43 35L18.5 1.5Z" fill="#607D61"/>
<path d="M93 36.5L90.1409 26.4931L83.5184 3.31437C83.3775 2.82109 82.6738 2.83466 82.5519 3.33301L77.5 24L65.5 31.7362L54.5 36.5L47.5 41L76 38.3085L93 36.5Z" fill="#81B183"/>
<path d="M106.5 23L112 35H120L123.459 31.7362L106.5 23Z" fill="#427B44"/>
<path d="M90.1409 26.4931L93 36.5L95.5409 28.4008L98.2705 19.7004L90.1409 26.4931Z" fill="#6EB371"/>
<path fill-rule="evenodd" clip-rule="evenodd" d="M18.5 1.5L-0.5 52.5C-0.309461 51.9936 0.244202 50.5923 1.0522 48.5474C5.03065 38.4786 15.1752 12.8042 18.5 1.5ZM99 36.0263L112 35L106.5 23L101 11L98.2705 19.7004L95.5409 28.4008L93 36.5L97 36.1842L99 36.0263ZM123.459 31.7362L120 35L131.25 35.75L123.459 31.7362Z" fill="#6EB371"/>
<path d="M171.5 37.1383L156.5 36.5L203.5 38.5L184.418 19.8613C183.022 18.4978 180.846 18.3406 179.268 19.4892L167.029 28.4008L171.5 37.1383Z" fill="#6EB371"/>
<path d="M142.5 36.5H156.5L167.029 28.4008L156.064 2.81612C155.79 2.17719 154.964 2.00566 154.459 2.48274L123.459 31.7362L131.25 35.75L142.5 36.5Z" fill="#519353"/>
<path d="M156.5 36.5L171.5 37.1383L167.029 28.4008L156.5 36.5Z" fill="#519353"/>
<path d="M198.5 38.5L0.5 57.5V65L231 45L198.5 38.5Z" fill="#46CD7C" stroke="#7BD573"/>
<path d="M60 65L61.9759 40.5347M62 33.3871V40.2366L61.9759 40.5347M62 33.3871L75 26.0108M62 33.3871V21.7957M62 21.7957L69 16M62 21.7957L51 18.1075M61.9759 40.5347L51 36.5484" stroke="#6A7168" stroke-width="3"/>
<path d="M74.9929 21.4755C75.8304 20.6556 77.1696 20.6556 78.0071 21.4755L78.0365 21.5043C78.3117 21.7737 78.6584 21.9586 79.0355 22.037L79.275 22.0868C80.3316 22.3064 80.9578 23.4011 80.6115 24.4232V24.4232C80.4847 24.7973 80.4847 25.2027 80.6115 25.5768V25.5768C80.9578 26.5989 80.3316 27.6936 79.275 27.9132L79.0355 27.963C78.6584 28.0414 78.3117 28.2263 78.0365 28.4957L78.0071 28.5245C77.1696 29.3444 75.8304 29.3444 74.9929 28.5245L74.9635 28.4957C74.6883 28.2263 74.3416 28.0414 73.9645 27.963L73.725 27.9132C72.6684 27.6936 72.0422 26.5989 72.3885 25.5768V25.5768C72.5153 25.2027 72.5153 24.7973 72.3885 24.4232V24.4232C72.0422 23.4011 72.6684 22.3064 73.725 22.0868L73.9645 22.037C74.3416 21.9586 74.6883 21.7737 74.9635 21.5043L74.9929 21.4755Z" fill="#4E7A47"/>
<path d="M66.0922 7.69474C67.3759 6.25804 69.6241 6.25804 70.9078 7.69474V7.69474C71.3474 8.18675 71.9329 8.53365 72.5749 8.68617V8.68617C74.4245 9.12566 75.5456 11.0329 75.0053 12.8557L74.9584 13.014C74.7676 13.6575 74.7676 14.3425 74.9584 14.986L75.0053 15.1443C75.5456 16.9671 74.4245 18.8743 72.5749 19.3138V19.3138C71.9329 19.4664 71.3474 19.8132 70.9078 20.3053V20.3053C69.6241 21.742 67.3759 21.742 66.0922 20.3053V20.3053C65.6526 19.8132 65.067 19.4664 64.4251 19.3138V19.3138C62.5755 18.8743 61.4544 16.9671 61.9947 15.1443L62.0416 14.986C62.2324 14.3425 62.2324 13.6575 62.0416 13.014L61.9947 12.8557C61.4544 11.0329 62.5755 9.12566 64.4251 8.68617V8.68617C65.067 8.53365 65.6526 8.18675 66.0922 7.69474V7.69474Z" fill="#376430"/>
<path d="M47.6006 13.6578C48.3322 12.7911 49.6678 12.7911 50.3994 13.6578V13.6578C50.6469 13.9509 50.9801 14.159 51.3522 14.2525L51.3889 14.2618C52.4525 14.5293 53.0861 15.6214 52.7903 16.6775L52.725 16.9108C52.6171 17.2962 52.6171 17.7038 52.725 18.0892L52.7903 18.3225C53.0861 19.3786 52.4525 20.4707 51.3889 20.7382L51.3522 20.7475C50.9801 20.841 50.6469 21.0491 50.3994 21.3422V21.3422C49.6678 22.2089 48.3322 22.2089 47.6006 21.3422V21.3422C47.3531 21.0491 47.0199 20.841 46.6478 20.7475L46.6111 20.7382C45.5475 20.4707 44.9139 19.3786 45.2097 18.3225L45.275 18.0892C45.3829 17.7038 45.3829 17.2962 45.275 16.9108L45.2097 16.6775C44.9139 15.6214 45.5475 14.5293 46.6111 14.2618L46.6478 14.2525C47.0199 14.159 47.3531 13.9509 47.6006 13.6578V13.6578Z" fill="#597D53"/>
<path d="M49.6313 32.3266C50.394 31.5873 51.606 31.5873 52.3687 32.3266L52.3984 32.3554C52.6476 32.5969 52.9606 32.7624 53.3005 32.8324L53.5403 32.8817C54.4899 33.0771 55.0523 34.0616 54.7384 34.9789V34.9789C54.6227 35.3167 54.6227 35.6833 54.7384 36.0211V36.0211C55.0523 36.9384 54.4899 37.9229 53.5403 38.1183L53.3005 38.1676C52.9606 38.2376 52.6476 38.4031 52.3984 38.6446L52.3687 38.6734C51.606 39.4127 50.394 39.4127 49.6313 38.6734L49.6016 38.6446C49.3524 38.4031 49.0394 38.2376 48.6995 38.1676L48.4597 38.1183C47.5101 37.9229 46.9477 36.9384 47.2616 36.0211V36.0211C47.3773 35.6833 47.3773 35.3167 47.2616 34.9789V34.9789C46.9477 34.0616 47.5101 33.0771 48.4597 32.8817L48.6995 32.8324C49.0394 32.7624 49.3524 32.5969 49.6016 32.3554L49.6313 32.3266Z" fill="#46703F"/>
</g>
<defs>
<clipPath id="clip0_1_3">
<rect width="231" height="65" fill="white"/>
</clipPath>
</defs>
</svg>
